<?xml version="1.0" encoding="UTF-8" standalone="no"?>
<svg
   xmlns:dc="http://purl.org/dc/elements/1.1/"
   xmlns:cc="http://creativecommons.org/ns#"
   xmlns:rdf="http://www.w3.org/1999/02/22-rdf-syntax-ns#"
   xmlns:svg="http://www.w3.org/2000/svg"
   xmlns="http://www.w3.org/2000/svg"
   viewBox="0 0 258.51999 99.023598"
   height="99.023598"
   width="258.51999"
   xml:space="preserve"
   id="svg2"
   version="1.1"><metadata
     id="metadata8"><rdf:RDF><cc:Work
         rdf:about=""><dc:format>image/svg+xml</dc:format><dc:type
           rdf:resource="http://purl.org/dc/dcmitype/StillImage" /></cc:Work></rdf:RDF></metadata><defs
     id="defs6"><clipPath
       id="clipPath18"
       clipPathUnits="userSpaceOnUse"><path
         id="path16"
         d="M 0,74.268 H 193.89 V 0 H 0 Z" /></clipPath><clipPath
       id="clipPath30"
       clipPathUnits="userSpaceOnUse"><path
         id="path28"
         d="M 0,74.268 H 193.89 V 0 H 0 Z" /></clipPath></defs><g
     transform="matrix(1.3333333,0,0,-1.3333333,0,99.0236)"
     id="g10"><g
       id="g12"><g
         clip-path="url(#clipPath18)"
         id="g14"><g
           transform="translate(182.7588,0.1309)"
           id="g20"><path
             id="path22"
             style="fill:#ffffff;fill-opacity:1;fill-rule:nonzero;stroke:none"
             d="m 0,0 h -171.716 c -6.099,0 -11.043,4.944 -11.043,11.043 v 52.181 c 0,6.099 4.944,11.043 11.043,11.043 H 0 c 6.099,0 11.043,-4.944 11.043,-11.043 V 11.043 C 11.043,4.944 6.099,0 0,0" /></g></g></g><g
       id="g24"><g
         clip-path="url(#clipPath30)"
         id="g26"><g
           transform="translate(47.7886,18.2345)"
           id="g32"><path
             id="path34"
             style="fill:#f7941e;fill-opacity:1;fill-rule:nonzero;stroke:none"
             d="m 0,0 c -3.632,0.599 -6.465,0.911 -11.297,0.913 -4.765,-0.002 -7.506,-0.302 -11.07,-0.876 -2.469,-0.399 -4.918,-0.985 -7.217,-1.631 l -1.115,0.715 c 2.336,0.656 5.669,1.487 8.176,1.894 3.588,0.578 6.422,0.886 11.226,0.884 4.87,0.002 7.799,-0.32 11.458,-0.922 C 2.673,0.56 5.884,-0.224 8.225,-0.896 L 7.181,-1.608 C 4.875,-0.95 2.477,-0.408 0,0" /></g><g
           transform="translate(37.1719,28.1143)"
           id="g36"><path
             id="path38"
             style="fill:#f7941e;fill-opacity:1;fill-rule:nonzero;stroke:none"
             d="M 0,0 C -0.008,3.353 1.605,5.12 2.292,5.822 2.97,6.533 3.747,6.658 4.265,6.659 L 4.285,5.78 C 3.849,5.763 3.419,5.712 2.923,5.211 2.282,4.534 0.887,3.067 0.878,0 H 0.88 Z" /></g><g
           transform="translate(38.0552,21.3507)"
           id="g40"><path
             id="path42"
             style="fill:#f7941e;fill-opacity:1;fill-rule:nonzero;stroke:none"
             d="m 0,0 c -0.529,1.258 -0.834,3.264 -0.898,8.315 -0.001,0.145 -0.006,0.289 -0.006,0.434 0,1.446 0.071,2.57 0.071,3.368 0.006,0.639 -0.059,1.063 -0.158,1.235 -0.097,0.147 -0.136,0.203 -0.538,0.223 v 0.88 c 0.547,0.02 1.08,-0.218 1.313,-0.689 0.23,-0.449 0.258,-0.971 0.26,-1.649 0,-0.849 -0.068,-1.949 -0.068,-3.368 0,-0.134 0.003,-0.275 0.003,-0.421 C 0.036,3.307 0.366,1.376 0.808,0.346 1.17,-0.447 1.489,-0.743 2.414,-0.875 2.518,-0.891 2.707,-0.899 2.707,-0.899 l 0.759,-0.5 0.364,-0.453 C 3.783,-1.852 3.735,-1.854 3.689,-1.854 1.714,-1.854 0.577,-1.448 0,0" /></g><g
           transform="translate(35.9316,28.1143)"
           id="g44"><path
             id="path46"
             style="fill:#f7941e;fill-opacity:1;fill-rule:nonzero;stroke:none"
             d="M 0,0 C 0.009,3.353 -1.605,5.12 -2.292,5.822 -2.971,6.533 -3.746,6.658 -4.265,6.659 L -4.285,5.78 C -3.849,5.763 -3.42,5.712 -2.923,5.211 -2.283,4.534 -0.889,3.067 -0.878,0 H -0.88 Z" /></g><g
           transform="translate(35.0469,21.3507)"
           id="g48"><path
             id="path50"
             style="fill:#f7941e;fill-opacity:1;fill-rule:nonzero;stroke:none"
             d="M 0,0 C 0.53,1.258 0.835,3.264 0.899,8.315 0.9,8.46 0.905,8.604 0.905,8.749 c 0,1.446 -0.071,2.57 -0.071,3.368 -0.006,0.639 0.06,1.063 0.159,1.235 0.097,0.147 0.134,0.203 0.537,0.223 v 0.88 c -0.546,0.02 -1.079,-0.218 -1.313,-0.689 -0.229,-0.449 -0.259,-0.971 -0.26,-1.649 0,-0.849 0.07,-1.949 0.07,-3.368 C 0.027,8.615 0.023,8.474 0.022,8.328 -0.035,3.307 -0.364,1.376 -0.807,0.346 -1.17,-0.447 -1.489,-0.743 -2.412,-0.875 -2.518,-0.891 -2.707,-0.899 -2.707,-0.899 l -0.757,-0.5 -0.365,-0.453 c 0.047,0 0.096,-0.002 0.141,-0.002 1.975,0 3.114,0.406 3.688,1.854" /></g><g
           transform="translate(43.144,38.5694)"
           id="g52"><path
             id="path54"
             style="fill:#f7941e;fill-opacity:1;fill-rule:nonzero;stroke:none"
             d="M 0,0 C 0.029,-0.98 -0.734,-1.797 -1.71,-1.824 -2.683,-1.857 -3.501,-1.092 -3.531,-0.116 -3.563,0.863 -2.8,1.683 -1.827,1.716 -0.85,1.749 -0.031,0.982 0,0" /></g><g
           transform="translate(48.7793,47.8448)"
           id="g56"><path
             id="path58"
             style="fill:#f7941e;fill-opacity:1;fill-rule:nonzero;stroke:none"
             d="M 0,0 C 0.86,0.028 1.579,-0.644 1.603,-1.508 1.631,-2.365 0.959,-3.086 0.1,-3.114 -0.759,-3.146 -1.474,-2.468 -1.503,-1.608 -1.53,-0.745 -0.856,-0.03 0,0" /></g><g
           transform="translate(36.2549,56.5982)"
           id="g60"><path
             id="path62"
             style="fill:#f7941e;fill-opacity:1;fill-rule:nonzero;stroke:none"
             d="M 0,0 C 0.862,0.031 1.581,-0.644 1.607,-1.509 1.633,-2.367 0.959,-3.086 0.101,-3.114 -0.757,-3.139 -1.475,-2.467 -1.503,-1.611 -1.527,-0.744 -0.855,-0.026 0,0" /></g><g
           transform="translate(33.2827,47.9561)"
           id="g64"><path
             id="path66"
             style="fill:#f7941e;fill-opacity:1;fill-rule:nonzero;stroke:none"
             d="M 0,0 C -0.829,-0.882 -2.205,-0.926 -3.085,-0.098 -3.963,0.73 -4.011,2.11 -3.188,2.993 -2.362,3.875 -0.979,3.919 -0.098,3.089 0.78,2.27 0.82,0.885 0,0" /></g><g
           transform="translate(19.1729,45.7032)"
           id="g68"><path
             id="path70"
             style="fill:#f7941e;fill-opacity:1;fill-rule:nonzero;stroke:none"
             d="M 0,0 C 0.826,-0.136 1.384,-0.904 1.251,-1.736 1.122,-2.56 0.35,-3.119 -0.474,-2.989 -1.298,-2.855 -1.854,-2.083 -1.725,-1.254 -1.592,-0.428 -0.819,0.129 0,0" /></g><g
           transform="translate(46.1216,42.8863)"
           id="g72"><path
             id="path74"
             style="fill:#f7941e;fill-opacity:1;fill-rule:nonzero;stroke:none"
             d="m 0,0 c -0.548,-1.292 -2.032,-1.9 -3.326,-1.359 -1.287,0.544 -1.895,2.034 -1.355,3.328 0.544,1.296 4.217,3.806 4.217,3.806 0,0 1.003,-4.479 0.464,-5.775" /></g><g
           transform="translate(54.0425,45.5899)"
           id="g76"><path
             id="path78"
             style="fill:#f7941e;fill-opacity:1;fill-rule:nonzero;stroke:none"
             d="m 0,0 c -0.642,-0.572 -1.631,-0.52 -2.209,0.127 -0.574,0.644 -0.521,1.641 0.123,2.22 0.644,0.573 3.36,0.994 3.36,0.994 C 1.274,3.341 0.648,0.585 0,0" /></g><g
           transform="translate(15.0757,43.9561)"
           id="g80"><path
             id="path82"
             style="fill:#f7941e;fill-opacity:1;fill-rule:nonzero;stroke:none"
             d="m 0,0 c 0.73,0 1.321,-0.585 1.327,-1.316 0.009,-0.727 -0.58,-1.32 -1.313,-1.327 -0.724,-0.007 -2.672,1.239 -2.672,1.239 0,0 1.93,1.394 2.658,1.404" /></g><g
           transform="translate(59.354,39.6891)"
           id="g84"><path
             id="path86"
             style="fill:#f7941e;fill-opacity:1;fill-rule:nonzero;stroke:none"
             d="M 0,0 C -0.607,0.048 -1.059,0.575 -1.014,1.186 -0.972,1.792 -0.441,2.246 0.167,2.2 0.773,2.157 2.309,0.983 2.309,0.983 2.309,0.983 0.608,-0.043 0,0" /></g><g
           transform="translate(45.4502,57.5797)"
           id="g88"><path
             id="path90"
             style="fill:#f7941e;fill-opacity:1;fill-rule:nonzero;stroke:none"
             d="m 0,0 c -0.009,-0.738 -0.604,-1.323 -1.341,-1.323 -0.73,0.013 -1.319,0.613 -1.313,1.35 0.006,0.729 1.293,2.676 1.293,2.676 0,0 1.366,-1.967 1.361,-2.703" /></g><g
           transform="translate(54.3691,37.4229)"
           id="g92"><path
             id="path94"
             style="fill:#f7941e;fill-opacity:1;fill-rule:nonzero;stroke:none"
             d="m 0,0 c -0.831,-0.082 -1.571,0.517 -1.655,1.338 -0.081,0.82 0.528,1.556 1.366,1.638 C 0.546,3.061 2.908,1.854 2.908,1.854 2.908,1.854 0.837,0.087 0,0" /></g><g
           transform="translate(48.9277,57.8424)"
           id="g96"><path
             id="path98"
             style="fill:#f7941e;fill-opacity:1;fill-rule:nonzero;stroke:none"
             d="m 0,0 c -0.222,-0.558 -0.852,-0.838 -1.417,-0.616 -0.561,0.218 -0.835,0.855 -0.616,1.423 0.222,0.56 1.783,1.678 1.783,1.678 0,0 0.468,-1.922 0.25,-2.485" /></g><g
           transform="translate(58.3311,47.6168)"
           id="g100"><path
             id="path102"
             style="fill:#f7941e;fill-opacity:1;fill-rule:nonzero;stroke:none"
             d="M 0,0 C -0.558,-0.318 -1.27,-0.128 -1.595,0.431 -1.917,0.989 -1.723,1.706 -1.161,2.033 -0.603,2.35 1.443,2.24 1.443,2.24 1.443,2.24 0.556,0.322 0,0" /></g><g
           transform="translate(53.2183,51.7965)"
           id="g104"><path
             id="path106"
             style="fill:#f7941e;fill-opacity:1;fill-rule:nonzero;stroke:none"
             d="m 0,0 c -0.539,-0.479 -1.363,-0.438 -1.851,0.1 -0.481,0.539 -0.43,1.371 0.102,1.858 0.542,0.479 2.81,0.836 2.81,0.836 C 1.061,2.794 0.538,0.484 0,0" /></g><g
           transform="translate(48.6919,51.191)"
           id="g108"><path
             id="path110"
             style="fill:#f7941e;fill-opacity:1;fill-rule:nonzero;stroke:none"
             d="M 0,0 C -0.578,-0.906 -1.782,-1.176 -2.683,-0.597 -3.587,-0.02 -3.853,1.183 -3.28,2.088 -2.703,2.993 0.393,4.417 0.393,4.417 0.393,4.417 0.577,0.911 0,0" /></g><g
           transform="translate(18.4507,49.5846)"
           id="g112"><path
             id="path114"
             style="fill:#f7941e;fill-opacity:1;fill-rule:nonzero;stroke:none"
             d="m 0,0 c 0.773,-0.286 1.168,-1.146 0.883,-1.919 -0.287,-0.777 -1.146,-1.173 -1.917,-0.889 -0.775,0.286 -2.334,2.397 -2.334,2.397 0,0 2.598,0.696 3.368,0.411" /></g><g
           transform="translate(42.9951,50.8414)"
           id="g116"><path
             id="path118"
             style="fill:#f7941e;fill-opacity:1;fill-rule:nonzero;stroke:none"
             d="m 0,0 c -0.219,-1.278 -1.427,-2.129 -2.696,-1.908 -1.267,0.224 -2.116,1.432 -1.901,2.709 0.226,1.275 3.014,4.277 3.014,4.277 0,0 1.804,-3.812 1.583,-5.078" /></g><g
           transform="translate(23.3218,54.0328)"
           id="g120"><path
             id="path122"
             style="fill:#f7941e;fill-opacity:1;fill-rule:nonzero;stroke:none"
             d="m 0,0 c 0.738,-0.752 0.732,-1.96 -0.015,-2.702 -0.749,-0.744 -1.954,-0.729 -2.696,0.019 -0.741,0.75 -1.417,4.035 -1.417,4.035 0,0 3.387,-0.597 4.128,-1.352" /></g><g
           transform="translate(28.2407,52.7296)"
           id="g124"><path
             id="path126"
             style="fill:#f7941e;fill-opacity:1;fill-rule:nonzero;stroke:none"
             d="m 0,0 c 0.43,-0.647 0.26,-1.522 -0.386,-1.955 -0.646,-0.437 -1.52,-0.258 -1.948,0.39 -0.432,0.646 -0.463,3.116 -0.463,3.116 0,0 2.365,-0.904 2.797,-1.551" /></g><g
           transform="translate(18.5493,40.567)"
           id="g128"><path
             id="path130"
             style="fill:#f7941e;fill-opacity:1;fill-rule:nonzero;stroke:none"
             d="m 0,0 c 0.896,0.122 1.725,-0.502 1.846,-1.401 0.127,-0.895 -0.497,-1.727 -1.395,-1.848 -0.897,-0.13 -3.492,1.097 -3.492,1.097 0,0 2.15,2.028 3.041,2.152" /></g><g
           transform="translate(31.2441,44.5543)"
           id="g132"><path
             id="path134"
             style="fill:#f7941e;fill-opacity:1;fill-rule:nonzero;stroke:none"
             d="m 0,0 c 0.815,-0.973 0.683,-2.421 -0.288,-3.232 -0.972,-0.814 -2.418,-0.683 -3.228,0.289 -0.811,0.972 -1.288,4.98 -1.288,4.98 0,0 3.992,-1.06 4.804,-2.037" /></g><g
           transform="translate(39.3877,44.8902)"
           id="g136"><path
             id="path138"
             style="fill:#f7941e;fill-opacity:1;fill-rule:nonzero;stroke:none"
             d="m 0,0 c 0.009,-1.561 -1.243,-2.842 -2.804,-2.855 -1.559,-0.013 -2.839,1.244 -2.85,2.804 -0.014,1.567 2.649,5.76 2.649,5.76 0,0 2.99,-4.135 3.005,-5.709" /></g><g
           transform="translate(33.4077,56.6466)"
           id="g140"><path
             id="path142"
             style="fill:#f7941e;fill-opacity:1;fill-rule:nonzero;stroke:none"
             d="m 0,0 c 0.381,-1.261 -0.323,-2.593 -1.58,-2.977 -1.255,-0.389 -2.585,0.325 -2.97,1.579 -0.382,1.263 0.771,5.285 0.771,5.285 0,0 3.391,-2.624 3.779,-3.887" /></g><g
           transform="translate(25.6387,41.8438)"
           id="g144"><path
             id="path146"
             style="fill:#f7941e;fill-opacity:1;fill-rule:nonzero;stroke:none"
             d="M 0,0 C 0.859,-0.717 0.98,-2 0.259,-2.86 -0.46,-3.727 -1.742,-3.841 -2.602,-3.118 -3.458,-2.398 -4.509,1.008 -4.509,1.008 -4.509,1.008 -0.861,0.72 0,0" /></g><g
           transform="translate(39.1587,59.6744)"
           id="g148"><path
             id="path150"
             style="fill:#f7941e;fill-opacity:1;fill-rule:nonzero;stroke:none"
             d="m 0,0 c -0.107,-0.757 -0.812,-1.29 -1.571,-1.186 -0.759,0.11 -1.287,0.814 -1.181,1.577 0.105,0.76 1.707,2.606 1.707,2.606 0,0 1.149,-2.232 1.045,-2.997" /></g><g
           transform="translate(24.6572,48.6065)"
           id="g152"><path
             id="path154"
             style="fill:#f7941e;fill-opacity:1;fill-rule:nonzero;stroke:none"
             d="m 0,0 c 0.857,-0.477 1.162,-1.561 0.683,-2.422 -0.48,-0.857 -1.559,-1.165 -2.414,-0.686 -0.86,0.481 -2.312,3.243 -2.312,3.243 0,0 3.185,0.351 4.043,-0.135" /></g><g
           transform="translate(50.874,38.589)"
           id="g156"><path
             id="path158"
             style="fill:#f7941e;fill-opacity:1;fill-rule:nonzero;stroke:none"
             d="M 0,0 C -1.064,-0.787 -2.561,-0.564 -3.345,0.498 -4.125,1.56 -3.904,3.059 -2.843,3.849 -1.782,4.631 2.403,4.89 2.403,4.89 2.403,4.89 1.059,0.785 0,0" /></g><g
           transform="translate(58.3223,42.8184)"
           id="g160"><path
             id="path162"
             style="fill:#f7941e;fill-opacity:1;fill-rule:nonzero;stroke:none"
             d="m 0,0 c -0.609,-0.649 -1.623,-0.681 -2.275,-0.072 -0.65,0.609 -0.681,1.63 -0.075,2.279 0.613,0.653 1.629,0.689 2.277,0.075 C 0.577,1.674 0.608,0.652 0,0" /></g><g
           transform="translate(33.1387,39.5987)"
           id="g164"><path
             id="path166"
             style="fill:#f7941e;fill-opacity:1;fill-rule:nonzero;stroke:none"
             d="m 0,0 c 0.734,-0.654 0.796,-1.769 0.145,-2.501 -0.649,-0.73 -1.762,-0.796 -2.487,-0.146 -0.728,0.655 -0.797,1.77 -0.147,2.502 C -1.844,0.584 -0.728,0.651 0,0" /></g><g
           transform="translate(38.1611,39.7608)"
           id="g168"><path
             id="path170"
             style="fill:#f7941e;fill-opacity:1;fill-rule:nonzero;stroke:none"
             d="m 0,0 c 0.422,-0.883 0.046,-1.934 -0.836,-2.357 -0.879,-0.419 -1.932,-0.049 -2.346,0.836 -0.422,0.883 -0.05,1.943 0.828,2.359 C -1.472,1.258 -0.418,0.887 0,0" /></g><g
           transform="translate(28.3672,38.2296)"
           id="g172"><path
             id="path174"
             style="fill:#f7941e;fill-opacity:1;fill-rule:nonzero;stroke:none"
             d="m 0,0 c 0.792,-0.29 1.194,-1.166 0.907,-1.958 -0.286,-0.794 -1.16,-1.196 -1.951,-0.915 -0.786,0.288 -1.197,1.168 -0.909,1.96 C -1.667,-0.121 -0.789,0.282 0,0" /></g><g
           transform="translate(46.7593,36.2813)"
           id="g176"><path
             id="path178"
             style="fill:#f7941e;fill-opacity:1;fill-rule:nonzero;stroke:none"
             d="M 0,0 C -0.282,-0.794 -1.151,-1.206 -1.944,-0.93 -2.737,-0.645 -3.149,0.226 -2.868,1.021 -2.586,1.817 -1.717,2.23 -0.92,1.948 -0.134,1.667 0.281,0.798 0,0" /></g><g
           transform="translate(27.5557,59.4215)"
           id="g180"><path
             id="path182"
             style="fill:#f7941e;fill-opacity:1;fill-rule:nonzero;stroke:none"
             d="m 0,0 c 0.308,-0.571 0.1,-1.289 -0.468,-1.603 -0.57,-0.313 -1.285,-0.1 -1.6,0.476 -0.306,0.57 -0.149,2.637 -0.149,2.637 0,0 1.905,-0.942 2.217,-1.51" /></g><path
           id="path184"
           style="fill:#3a3a3a;fill-opacity:1;fill-rule:nonzero;stroke:none"
           d="M 70.249,26.766 H 68.62 v 16.062 h 1.629 z" /><g
           transform="translate(75.4731,37.3819)"
           id="g186"><path
             id="path188"
             style="fill:#3a3a3a;fill-opacity:1;fill-rule:nonzero;stroke:none"
             d="m 0,0 c 0.067,-0.567 0.067,-1.133 0.067,-1.7 h 0.046 c 0.656,1.157 2.149,1.973 3.551,1.973 2.693,0 3.98,-1.519 3.98,-4.152 v -6.737 H 6.153 v 5.876 c 0,2.358 -0.657,3.651 -2.874,3.651 -0.315,0 -3.212,-0.203 -3.212,-4.084 v -5.443 h -1.491 v 8.28 c 0,0.568 -0.07,1.566 -0.114,2.336 z" /></g><g
           transform="translate(88.0474,37.3819)"
           id="g190"><path
             id="path192"
             style="fill:#3a3a3a;fill-opacity:1;fill-rule:nonzero;stroke:none"
             d="m 0,0 c 0.068,-0.567 0.068,-1.133 0.068,-1.7 h 0.045 c 0.656,1.157 2.149,1.973 3.551,1.973 2.693,0 3.981,-1.519 3.981,-4.152 v -6.737 H 6.153 v 5.876 c 0,2.358 -0.657,3.651 -2.872,3.651 -0.319,0 -3.213,-0.203 -3.213,-4.084 v -5.443 h -1.493 v 8.28 c 0,0.568 -0.068,1.566 -0.113,2.336 z" /></g><g
           transform="translate(104.2646,36.2931)"
           id="g194"><path
             id="path196"
             style="fill:#3a3a3a;fill-opacity:1;fill-rule:nonzero;stroke:none"
             d="m 0,0 c -2.443,0 -3.982,-1.839 -3.982,-4.219 0,-2.382 1.539,-4.219 3.982,-4.219 2.466,0 4.004,1.837 4.004,4.219 C 4.004,-1.839 2.466,0 0,0 m 0,-9.801 c -3.28,0 -5.61,2.384 -5.61,5.582 0,3.198 2.33,5.581 5.61,5.581 3.302,0 5.631,-2.383 5.631,-5.581 0,-3.198 -2.329,-5.582 -5.631,-5.582" /></g><g
           transform="translate(117.2686,26.7657)"
           id="g198"><path
             id="path200"
             style="fill:#3a3a3a;fill-opacity:1;fill-rule:nonzero;stroke:none"
             d="m 0,0 h -1.673 l -4.299,10.616 h 1.786 l 3.372,-8.937 h 0.043 l 3.373,8.937 h 1.696 z" /></g><path
           id="path202"
           style="fill:#3a3a3a;fill-opacity:1;fill-rule:nonzero;stroke:none"
           d="m 125.342,26.766 h -1.492 v 10.616 h 1.492 z m -0.747,13.611 c -0.542,0 -1.085,0.454 -1.085,1.089 0,0.636 0.543,1.089 1.085,1.089 0.543,0 1.088,-0.453 1.088,-1.089 0,-0.635 -0.545,-1.089 -1.088,-1.089" /><g
           transform="translate(134.5479,34.8643)"
           id="g204"><path
             id="path206"
             style="fill:#3a3a3a;fill-opacity:1;fill-rule:nonzero;stroke:none"
             d="m 0,0 c -0.451,0.862 -1.199,1.429 -2.285,1.429 -1.041,0 -2.194,-0.452 -2.194,-1.586 0,-0.999 0.703,-1.363 2.083,-1.681 L -0.882,-2.2 c 1.47,-0.34 2.576,-1.407 2.576,-2.905 0,-2.312 -2.056,-3.267 -4.114,-3.267 -1.606,0 -3.075,0.568 -4.071,2.063 l 1.288,0.887 c 0.609,-0.953 1.538,-1.587 2.783,-1.587 1.221,0 2.487,0.544 2.487,1.768 0,1.068 -0.904,1.43 -2.011,1.703 l -1.448,0.339 c -0.724,0.181 -2.715,0.772 -2.715,2.789 0,2.202 1.921,3.201 3.914,3.201 1.468,0 2.847,-0.522 3.526,-1.906 z" /></g><g
           transform="translate(144.0469,36.0216)"
           id="g208"><path
             id="path210"
             style="fill:#3a3a3a;fill-opacity:1;fill-rule:nonzero;stroke:none"
             d="m 0,0 h -3.056 v -6.263 c 0,-1.587 0.613,-1.903 1.539,-1.903 0.522,0 1.086,0.156 1.538,0.407 L 0.09,-9.142 c -0.542,-0.251 -1.266,-0.387 -2.013,-0.387 -1.133,0 -2.623,0.5 -2.623,2.837 V 0 h -2.239 v 1.36 h 2.239 v 2.995 h 1.49 V 1.36 L 0,1.36 Z" /></g><g
           transform="translate(152.0986,32.0528)"
           id="g212"><path
             id="path214"
             style="fill:#3a3a3a;fill-opacity:1;fill-rule:nonzero;stroke:none"
             d="m 0,0 c -1.516,0 -4.932,-0.115 -4.932,-2.248 0,-1.405 1.292,-1.949 2.49,-1.949 2.171,0 3.212,1.542 3.212,3.425 V 0 Z m 0.77,1.222 v 0.273 c 0,1.838 -0.884,2.745 -2.716,2.745 -1.245,0 -2.332,-0.429 -3.235,-1.247 l -0.903,1.065 c 0.973,1 2.483,1.545 4.477,1.545 2.083,0 3.869,-1.18 3.869,-3.767 v -4.741 c 0,-0.817 0.09,-1.815 0.181,-2.382 H 0.995 C 0.903,-4.767 0.86,-4.13 0.86,-3.563 H 0.814 c -0.86,-1.407 -2.035,-1.998 -3.734,-1.998 -1.876,0 -3.641,1.044 -3.641,3.11 0,3.449 4.049,3.673 6.581,3.673 z" /></g><g
           transform="translate(68.6816,23.8663)"
           id="g216"><path
             id="path218"
             style="fill:#f7941e;fill-opacity:1;fill-rule:nonzero;stroke:none"
             d="m 0,0 h 0.567 v -3.125 h 0.018 c 0.248,0.439 0.816,0.748 1.348,0.748 1.021,0 1.51,-0.576 1.51,-1.575 V -6.511 H 2.876 v 2.232 c 0,0.895 -0.248,1.385 -1.089,1.385 -0.121,0 -1.22,-0.078 -1.22,-1.55 V -6.511 H 0 Z" /></g><g
           transform="translate(75.3809,20.9727)"
           id="g220"><path
             id="path222"
             style="fill:#f7941e;fill-opacity:1;fill-rule:nonzero;stroke:none"
             d="m 0,0 c -0.928,0 -1.512,-0.696 -1.512,-1.6 0,-0.906 0.584,-1.603 1.512,-1.603 0.936,0 1.518,0.697 1.518,1.603 C 1.518,-0.696 0.936,0 0,0 m 0,-3.722 c -1.246,0 -2.13,0.908 -2.13,2.122 0,1.213 0.884,2.117 2.13,2.117 1.254,0 2.139,-0.904 2.139,-2.117 0,-1.214 -0.885,-2.122 -2.139,-2.122" /></g><g
           transform="translate(80.6968,20.9727)"
           id="g224"><path
             id="path226"
             style="fill:#f7941e;fill-opacity:1;fill-rule:nonzero;stroke:none"
             d="m 0,0 c -0.929,0 -1.605,-0.696 -1.605,-1.6 0,-0.906 0.676,-1.603 1.605,-1.603 0.936,0 1.518,0.697 1.518,1.603 C 1.518,-0.696 0.936,0 0,0 m -2.148,0.414 h 0.566 v -0.673 h 0.018 c 0.371,0.545 1.03,0.776 1.564,0.776 1.252,0 2.138,-0.904 2.138,-2.117 0,-1.214 -0.886,-2.122 -2.138,-2.122 -0.534,0 -1.193,0.235 -1.564,0.777 h -0.018 v -3.154 h -0.566 z" /></g><g
           transform="translate(86.9209,19.6798)"
           id="g228"><path
             id="path230"
             style="fill:#f7941e;fill-opacity:1;fill-rule:nonzero;stroke:none"
             d="M 0,0 C 0,0.77 -0.488,1.293 -1.304,1.293 -2.043,1.293 -2.713,0.665 -2.713,0 Z m -2.729,-0.464 c 0.067,-0.809 0.677,-1.446 1.477,-1.446 0.6,0 1.063,0.336 1.288,0.697 L 0.473,-1.574 C 0,-2.177 -0.592,-2.429 -1.252,-2.429 c -1.193,0 -2.079,0.908 -2.079,2.121 0,1.214 0.886,2.118 2.027,2.118 C -0.085,1.802 0.62,0.897 0.62,-0.205 v -0.259 z" /></g><g
           transform="translate(93.0376,20.8692)"
           id="g232"><path
             id="path234"
             style="fill:#f7941e;fill-opacity:1;fill-rule:nonzero;stroke:none"
             d="m 0,0 h -1.16 v -2.375 c 0,-0.605 0.23,-0.725 0.584,-0.725 0.197,0 0.411,0.061 0.583,0.156 l 0.027,-0.528 c -0.206,-0.094 -0.481,-0.146 -0.764,-0.146 -0.43,0 -0.997,0.19 -0.997,1.076 V 0 h -0.85 v 0.518 h 0.85 V 1.653 H -1.16 V 0.518 H 0 Z" /></g><g
           transform="translate(93.8105,23.8663)"
           id="g236"><path
             id="path238"
             style="fill:#f7941e;fill-opacity:1;fill-rule:nonzero;stroke:none"
             d="m 0,0 h 0.566 v -3.125 h 0.017 c 0.25,0.439 0.816,0.748 1.347,0.748 1.025,0 1.512,-0.576 1.512,-1.575 V -6.511 H 2.875 v 2.232 c 0,0.895 -0.248,1.385 -1.09,1.385 -0.119,0 -1.219,-0.078 -1.219,-1.55 V -6.511 H 0 Z" /></g><g
           transform="translate(98.6445,20.129)"
           id="g240"><path
             id="path242"
             style="fill:#f7941e;fill-opacity:1;fill-rule:nonzero;stroke:none"
             d="M 0,0 C 0,0.361 -0.018,0.672 -0.034,1.258 H 0.523 V 0.508 H 0.542 C 0.704,0.939 1.125,1.36 1.828,1.36 1.992,1.36 2.129,1.345 2.25,1.31 L 2.139,0.75 C 2.068,0.774 1.966,0.792 1.812,0.792 0.953,0.792 0.564,0.043 0.564,-0.5 V -2.773 H 0 Z" /></g><g
           transform="translate(103.2061,20.9727)"
           id="g244"><path
             id="path246"
             style="fill:#f7941e;fill-opacity:1;fill-rule:nonzero;stroke:none"
             d="m 0,0 c -0.93,0 -1.514,-0.696 -1.514,-1.6 0,-0.906 0.584,-1.603 1.514,-1.603 0.934,0 1.519,0.697 1.519,1.603 C 1.519,-0.696 0.934,0 0,0 m 0,-3.722 c -1.246,0 -2.13,0.908 -2.13,2.122 0,1.213 0.884,2.117 2.13,2.117 1.25,0 2.138,-0.904 2.138,-2.117 C 2.138,-2.814 1.25,-3.722 0,-3.722" /></g><g
           transform="translate(109.2764,17.3556)"
           id="g248"><path
             id="path250"
             style="fill:#f7941e;fill-opacity:1;fill-rule:nonzero;stroke:none"
             d="m 0,0 c -0.027,0.216 -0.027,0.433 -0.027,0.645 h -0.016 c -0.25,-0.438 -0.816,-0.75 -1.349,-0.75 -1.021,0 -1.51,0.58 -1.51,1.579 v 2.557 h 0.566 v -2.23 c 0,-0.896 0.249,-1.387 1.092,-1.387 0.119,0 1.217,0.078 1.217,1.549 V 4.031 H 0.542 V 0.887 C 0.542,0.672 0.568,0.293 0.584,0 Z" /></g><g
           transform="translate(113.0537,17.8712)"
           id="g252"><path
             id="path254"
             style="fill:#f7941e;fill-opacity:1;fill-rule:nonzero;stroke:none"
             d="M 0,0 C 0.826,0 1.556,0.623 1.521,1.551 1.521,2.396 0.946,3.102 0,3.102 -0.841,3.102 -1.493,2.396 -1.493,1.551 -1.493,0.708 -0.841,0 0,0 m -1.597,-1.326 c 0.336,-0.447 0.894,-0.738 1.537,-0.738 1.153,0 1.565,0.714 1.565,1.584 V 0.242 H 1.487 C 1.127,-0.3 0.569,-0.516 -0.017,-0.516 c -1.158,0 -2.094,0.871 -2.094,2.049 0,1.173 0.857,2.085 2.045,2.085 0.479,0 1.089,-0.145 1.553,-0.775 H 1.505 V 3.516 H 2.07 V -0.48 c 0,-0.879 -0.351,-2.103 -2.153,-2.103 -0.799,0 -1.419,0.259 -1.935,0.81 z" /></g><g
           transform="translate(116.3955,23.8663)"
           id="g256"><path
             id="path258"
             style="fill:#f7941e;fill-opacity:1;fill-rule:nonzero;stroke:none"
             d="m 0,0 h 0.566 v -3.125 h 0.019 c 0.249,0.439 0.815,0.748 1.349,0.748 1.02,0 1.509,-0.576 1.509,-1.575 V -6.511 H 2.876 v 2.232 c 0,0.895 -0.249,1.385 -1.09,1.385 -0.119,0 -1.22,-0.078 -1.22,-1.55 V -6.511 H 0 Z" /></g><g
           transform="translate(125.0527,18.0548)"
           id="g260"><path
             id="path262"
             style="fill:#f7941e;fill-opacity:1;fill-rule:nonzero;stroke:none"
             d="M 0,0 1.227,3.332 H 1.915 L -0.096,-1.75 c -0.239,-0.621 -0.566,-1.017 -1.261,-1.017 -0.173,0 -0.353,0.009 -0.523,0.06 l 0.06,0.553 c 0.128,-0.069 0.275,-0.094 0.428,-0.094 0.395,0 0.601,0.266 0.772,0.724 l 0.292,0.772 -1.649,4.084 h 0.714 z" /></g><g
           transform="translate(129.6191,20.9727)"
           id="g264"><path
             id="path266"
             style="fill:#f7941e;fill-opacity:1;fill-rule:nonzero;stroke:none"
             d="m 0,0 c -0.924,0 -1.508,-0.696 -1.508,-1.6 0,-0.906 0.584,-1.603 1.508,-1.603 0.939,0 1.523,0.697 1.523,1.603 C 1.523,-0.696 0.939,0 0,0 m 0,-3.722 c -1.243,0 -2.129,0.908 -2.129,2.122 0,1.213 0.886,2.117 2.129,2.117 1.256,0 2.14,-0.904 2.14,-2.117 0,-1.214 -0.884,-2.122 -2.14,-2.122" /></g><g
           transform="translate(135.6924,17.3556)"
           id="g268"><path
             id="path270"
             style="fill:#f7941e;fill-opacity:1;fill-rule:nonzero;stroke:none"
             d="m 0,0 c -0.024,0.216 -0.024,0.433 -0.024,0.645 h -0.018 c -0.25,-0.438 -0.816,-0.75 -1.349,-0.75 -1.022,0 -1.51,0.58 -1.51,1.579 v 2.557 h 0.566 v -2.23 c 0,-0.896 0.249,-1.387 1.09,-1.387 0.12,0 1.221,0.078 1.221,1.549 V 4.031 H 0.54 V 0.887 C 0.54,0.672 0.567,0.293 0.585,0 Z" /></g><g
           transform="translate(138.1064,21.3868)"
           id="g272"><path
             id="path274"
             style="fill:#f7941e;fill-opacity:1;fill-rule:nonzero;stroke:none"
             d="m 0,0 c 0.024,-0.216 0.024,-0.43 0.024,-0.645 h 0.018 c 0.25,0.439 0.816,0.748 1.35,0.748 1.021,0 1.509,-0.577 1.509,-1.576 V -4.031 H 2.335 V -1.8 c 0,0.896 -0.248,1.386 -1.09,1.386 -0.121,0 -1.221,-0.078 -1.221,-1.551 v -2.066 h -0.565 v 3.142 c 0,0.216 -0.026,0.596 -0.045,0.889 z" /></g><g
           transform="translate(144.2451,17.8712)"
           id="g276"><path
             id="path278"
             style="fill:#f7941e;fill-opacity:1;fill-rule:nonzero;stroke:none"
             d="M 0,0 C 0.825,0 1.557,0.623 1.52,1.551 1.52,2.396 0.946,3.102 0,3.102 -0.842,3.102 -1.492,2.396 -1.492,1.551 -1.492,0.708 -0.842,0 0,0 m -1.597,-1.326 c 0.336,-0.447 0.895,-0.738 1.539,-0.738 1.151,0 1.561,0.714 1.561,1.584 V 0.242 H 1.487 C 1.128,-0.3 0.567,-0.516 -0.017,-0.516 c -1.158,0 -2.094,0.871 -2.094,2.049 0,1.173 0.859,2.085 2.044,2.085 0.481,0 1.09,-0.145 1.554,-0.775 H 1.503 V 3.516 H 2.07 V -0.48 c 0,-0.879 -0.35,-2.103 -2.154,-2.103 -0.8,0 -1.419,0.259 -1.932,0.81 z" /></g><path
           id="path280"
           style="fill:#f7941e;fill-opacity:1;fill-rule:nonzero;stroke:none"
           d="m 150.668,17.356 h -0.566 v 6.511 h 0.566 z" /><g
           transform="translate(155.1631,19.6798)"
           id="g282"><path
             id="path284"
             style="fill:#f7941e;fill-opacity:1;fill-rule:nonzero;stroke:none"
             d="m 0,0 c 0,0.77 -0.492,1.293 -1.306,1.293 -0.74,0 -1.41,-0.628 -1.41,-1.293 z m -2.732,-0.464 c 0.069,-0.809 0.678,-1.446 1.478,-1.446 0.6,0 1.063,0.336 1.287,0.697 L 0.471,-1.574 C 0,-2.177 -0.594,-2.429 -1.254,-2.429 c -1.195,0 -2.08,0.908 -2.08,2.121 0,1.214 0.885,2.118 2.028,2.118 1.217,-0.008 1.922,-0.913 1.922,-2.015 v -0.259 z" /></g><g
           transform="translate(159.0957,19.3634)"
           id="g286"><path
             id="path288"
             style="fill:#f7941e;fill-opacity:1;fill-rule:nonzero;stroke:none"
             d="m 0,0 c -0.575,0 -1.873,-0.045 -1.873,-0.854 0,-0.534 0.491,-0.74 0.945,-0.74 0.823,0 1.219,0.585 1.219,1.3 l 0,0.294 z m 0.291,0.464 v 0.104 c 0,0.697 -0.334,1.041 -1.03,1.041 -0.473,0 -0.885,-0.163 -1.229,-0.474 L -2.313,1.54 c 0.373,0.38 0.946,0.586 1.703,0.586 0.789,0 1.467,-0.447 1.467,-1.43 v -1.799 c 0,-0.311 0.036,-0.689 0.07,-0.905 H 0.376 c -0.031,0.197 -0.051,0.44 -0.051,0.655 H 0.31 c -0.328,-0.534 -0.774,-0.759 -1.42,-0.759 -0.711,0 -1.379,0.397 -1.379,1.181 0,1.309 1.536,1.395 2.498,1.395 z" /></g><g
           transform="translate(163.1299,17.7696)"
           id="g290"><path
             id="path292"
             style="fill:#f7941e;fill-opacity:1;fill-rule:nonzero;stroke:none"
             d="m 0,0 c 0.93,0 1.607,0.697 1.607,1.603 0,0.904 -0.677,1.6 -1.607,1.6 -0.933,0 -1.52,-0.696 -1.52,-1.6 C -1.52,0.697 -0.933,0 0,0 M 2.149,-0.414 H 1.582 V 0.258 H 1.563 C 1.196,-0.284 0.533,-0.519 0,-0.519 c -1.251,0 -2.136,0.908 -2.136,2.122 0,1.213 0.885,2.117 2.136,2.117 0.533,0 1.196,-0.231 1.563,-0.776 h 0.019 v 3.153 h 0.567 z" /></g><g
           transform="translate(169.6416,19.6798)"
           id="g294"><path
             id="path296"
             style="fill:#f7941e;fill-opacity:1;fill-rule:nonzero;stroke:none"
             d="M 0,0 C 0,0.77 -0.489,1.293 -1.306,1.293 -2.044,1.293 -2.713,0.665 -2.713,0 Z m -2.733,-0.464 c 0.069,-0.809 0.68,-1.446 1.479,-1.446 0.602,0 1.067,0.336 1.286,0.697 L 0.473,-1.574 C 0,-2.177 -0.592,-2.429 -1.254,-2.429 c -1.195,0 -2.08,0.908 -2.08,2.121 0,1.214 0.885,2.118 2.028,2.118 1.218,-0.008 1.923,-0.913 1.923,-2.015 v -0.259 z" /></g><g
           transform="translate(171.3496,20.129)"
           id="g298"><path
             id="path300"
             style="fill:#f7941e;fill-opacity:1;fill-rule:nonzero;stroke:none"
             d="M 0,0 C 0,0.361 -0.018,0.672 -0.034,1.258 H 0.525 V 0.508 H 0.542 C 0.706,0.939 1.126,1.36 1.83,1.36 1.993,1.36 2.13,1.345 2.249,1.31 L 2.139,0.75 C 2.07,0.774 1.968,0.792 1.812,0.792 0.952,0.792 0.566,0.043 0.566,-0.5 V -2.773 H 0 Z" /></g><g
           transform="translate(176.2715,20.4308)"
           id="g302"><path
             id="path304"
             style="fill:#f7941e;fill-opacity:1;fill-rule:nonzero;stroke:none"
             d="m 0,0 c -0.173,0.326 -0.456,0.542 -0.868,0.542 -0.394,0 -0.832,-0.172 -0.832,-0.603 0,-0.378 0.266,-0.516 0.79,-0.637 l 0.574,-0.136 c 0.559,-0.131 0.979,-0.536 0.979,-1.103 0,-0.881 -0.784,-1.243 -1.561,-1.243 -0.611,0 -1.169,0.217 -1.546,0.785 l 0.487,0.336 c 0.234,-0.361 0.584,-0.602 1.059,-0.602 0.462,0 0.943,0.206 0.943,0.671 0,0.406 -0.343,0.543 -0.764,0.646 l -0.548,0.129 c -0.277,0.069 -1.033,0.293 -1.033,1.061 0,0.835 0.73,1.213 1.487,1.213 0.56,0 1.081,-0.199 1.339,-0.723 z" /></g></g></g></g></svg>