<?xml version="1.0" encoding="UTF-8" standalone="no"?>
<svg width="32px" height="32px" viewBox="0 0 32 32" version="1.1" xmlns="http://www.w3.org/2000/svg" xmlns:xlink="http://www.w3.org/1999/xlink" xmlns:sketch="http://www.bohemiancoding.com/sketch/ns">
    <!-- Generator: Sketch 3.4.2 (15855) - http://www.bohemiancoding.com/sketch -->
    <title>Twiter@2x</title>
    <desc>Created with Sketch.</desc>
    <defs></defs>
    <g id="Page-1" stroke="none" stroke-width="1" fill="none" fill-rule="evenodd" sketch:type="MSPage">
        <g id="Twiter" sketch:type="MSArtboardGroup">
            <circle id="Oval-1" fill="#A7A9AC" sketch:type="MSShapeGroup" cx="16" cy="16" r="16"></circle>
            <path d="M24.3694734,22.4699288 C25.2032764,22.9700521 25.8434999,23.7615959 26.1451035,24.7045898 C25.3647366,24.241526 24.5005428,23.9056426 23.5800324,23.7245941 C22.8435953,24.509426 21.793744,25 20.6319795,25 C18.4010633,25 16.5928819,23.1916746 16.5928819,20.9609024 C16.5928819,20.6442042 16.6282707,20.3358311 16.6974206,20.0403921 C13.3403159,20.2086218 10.3640326,21.8171744 8.37177795,24.2606822 C8.0240696,23.6643886 7.82490174,22.9706282 7.82490174,22.230259 C7.82490174,20.8287096 8.53770315,19.5925957 9.62184862,18.8679692 C8.95974658,18.8886666 8.33682132,19.0704498 7.79220641,19.3732057 C7.79158707,19.3562099 7.79158707,19.3393869 7.79158707,19.3225063 C7.79158707,17.3651075 9.18409127,15.7329335 11.0317375,15.3616183 C10.6930888,15.2692936 10.3363352,15.2204666 9.96791501,15.2204666 C9.70737499,15.2204666 9.45475676,15.2451106 9.20769817,15.2924828 C9.72205188,13.687819 11.2134919,12.5198612 12.9813442,12.4871658 C11.5977988,11.4036109 9.85641961,10.7582022 7.96383529,10.7582022 C7.63801984,10.7582022 7.3162517,10.7773873 7,10.8145188 C8.78830494,9.66848267 10.9111969,9 13.1925244,9 C20.6219981,9 24.6842848,15.1546439 24.6842848,20.4927687 C24.6842848,20.6678111 24.6802519,20.8416581 24.6729063,21.0148857 C25.4617711,21.5848359 26.1465006,22.296053 26.6883501,23.1062346 C25.9650632,22.7849418 25.1864246,22.5677699 24.3694734,22.4699288 Z" id="path22" fill="#FFFFFF" sketch:type="MSShapeGroup" transform="translate(16.844557, 17.000000) scale(1, -1) translate(-16.844557, -17.000000) "></path>
        </g>
    </g>
</svg>